<svg id="visual" viewBox="0 0 900 600" width="900" height="600" xmlns="http://www.w3.org/2000/svg" xmlns:xlink="http://www.w3.org/1999/xlink" version="1.1"><rect x="0" y="0" width="900" height="600" fill="#001220"></rect><defs><linearGradient id="grad1_0" x1="33.3%" y1="0%" x2="100%" y2="100%"><stop offset="20%" stop-color="#00b0ef" stop-opacity="1"></stop><stop offset="80%" stop-color="#00b0ef" stop-opacity="1"></stop></linearGradient></defs><defs><linearGradient id="grad1_1" x1="33.3%" y1="0%" x2="100%" y2="100%"><stop offset="20%" stop-color="#00b0ef" stop-opacity="1"></stop><stop offset="80%" stop-color="#001220" stop-opacity="1"></stop></linearGradient></defs><defs><linearGradient id="grad2_0" x1="0%" y1="0%" x2="66.7%" y2="100%"><stop offset="20%" stop-color="#00b0ef" stop-opacity="1"></stop><stop offset="80%" stop-color="#00b0ef" stop-opacity="1"></stop></linearGradient></defs><defs><linearGradient id="grad2_1" x1="0%" y1="0%" x2="66.7%" y2="100%"><stop offset="20%" stop-color="#001220" stop-opacity="1"></stop><stop offset="80%" stop-color="#00b0ef" stop-opacity="1"></stop></linearGradient></defs><g transform="translate(900, 0)"><path d="M0 297.5C-27.9 286.6 -55.8 275.8 -87.5 269.1C-119.1 262.5 -154.5 260.1 -174.8 240.6C-195.2 221.2 -200.6 184.6 -217.6 158.1C-234.7 131.6 -263.4 115.2 -278.7 90.5C-293.9 65.9 -295.7 32.9 -297.5 0L0 0Z" fill="#155a80"></path><path d="M0 148.7C-14 143.3 -27.9 137.9 -43.7 134.6C-59.5 131.3 -77.2 130.1 -87.4 120.3C-97.6 110.6 -100.3 92.3 -108.8 79.1C-117.3 65.8 -131.7 57.6 -139.3 45.3C-147 32.9 -147.8 16.5 -148.7 0L0 0Z" fill="#00b0ef"></path></g><g transform="translate(0, 600)"><path d="M0 -297.5C29.3 -290.9 58.5 -284.3 89.9 -276.8C121.3 -269.2 154.8 -260.7 173.4 -238.7C192 -216.6 195.7 -180.9 214.4 -155.8C233 -130.6 266.6 -116.1 282.9 -91.9C299.2 -67.7 298.3 -33.9 297.5 0L0 0Z" fill="#155a80"></path><path d="M0 -148.7C14.6 -145.4 29.3 -142.1 45 -138.4C60.7 -134.6 77.4 -130.4 86.7 -119.3C96 -108.3 97.9 -90.4 107.2 -77.9C116.5 -65.3 133.3 -58.1 141.4 -46C149.6 -33.9 149.2 -16.9 148.7 0L0 0Z" fill="#00b0ef"></path></g></svg>