<svg version="1.1" id="Layer_1" xmlns="http://www.w3.org/2000/svg" xmlns:xlink="http://www.w3.org/1999/xlink" x="0px" y="0px"
	 width="100%" viewBox="0 0 900 600" enable-background="new 0 0 900 600" xml:space="preserve">
<path fill="#081319" opacity="1.000000" stroke="none" 
	d="
M900.769897,93.641914 
	C901.000000,243.687561 901.000000,393.375122 901.000000,543.531372 
	C897.771057,547.439331 893.281616,547.091919 889.309448,547.246094 
	C857.856445,548.467041 827.141907,554.142517 796.736816,561.906311 
	C783.968018,565.166748 771.009338,567.574097 757.846558,568.244141 
	C744.296692,568.933899 730.975037,566.557373 717.717163,564.010498 
	C705.283630,561.622009 692.805176,559.389160 680.157349,558.715820 
	C669.628235,558.155212 659.295105,560.364319 648.950439,562.091736 
	C636.158081,564.227905 623.538269,567.572632 610.420227,567.460938 
	C599.462524,567.367615 588.950378,565.020325 578.637878,561.552185 
	C566.455933,557.455322 554.900024,551.839172 543.143921,546.727173 
	C516.823059,535.281799 489.422150,533.513733 461.323608,536.802002 
	C426.672485,540.857178 392.572144,547.494507 359.034241,557.201294 
	C349.003265,560.104553 338.677887,561.880432 328.102356,562.598511 
	C308.109344,563.956299 290.823059,557.328979 274.530640,546.696350 
	C264.905457,540.414856 255.146774,534.338135 245.217194,528.542725 
	C227.014908,517.918884 208.004501,517.435547 188.308121,523.685303 
	C174.187042,528.165955 160.380280,533.706970 145.868713,536.886047 
	C117.459259,543.109924 89.336296,541.645508 61.423191,533.633484 
	C43.111668,528.377502 25.635551,520.964355 8.095311,513.692505 
	C5.505353,512.618835 2.785585,511.552155 1.230056,508.358002 
	C1.000000,358.312439 1.000000,208.624878 1.000000,58.468658 
	C4.049154,54.607334 8.394674,54.943233 12.191067,54.783100 
	C46.148109,53.350769 79.235565,46.783424 112.117760,38.690834 
	C125.545357,35.386189 139.207184,32.859932 153.134583,33.767952 
	C165.267990,34.559010 177.381653,36.172489 189.172485,39.084469 
	C212.343918,44.807121 235.311172,44.108315 258.421936,38.892788 
	C267.826447,36.770420 277.376373,35.123001 287.046722,34.590309 
	C307.358459,33.471432 325.721161,40.492302 343.695282,48.655457 
	C361.825195,56.889366 380.144409,64.289886 400.248077,65.971916 
	C413.730347,67.099945 427.174591,66.768547 440.619171,65.205956 
	C475.270874,61.178585 509.367798,54.520744 542.904541,44.815281 
	C553.094910,41.866207 563.586487,40.111164 574.330994,39.384163 
	C594.000671,38.053261 610.897949,44.748547 627.003174,54.979115 
	C637.963257,61.941315 648.845337,69.023064 660.395691,75.052757 
	C674.488586,82.409752 688.999634,84.226738 704.450684,80.575539 
	C719.084656,77.117432 732.994690,71.421570 747.398804,67.273743 
	C774.260315,59.538677 801.322937,59.653374 828.466736,65.335777 
	C851.767395,70.213615 873.488281,79.683830 895.263000,88.940811 
	C897.423035,89.859062 899.482239,90.985359 900.769897,93.641914 
z"/>
<path fill="#00B0EF" opacity="1.000000" stroke="none" 
	d="
M901.000000,93.531342 
	C877.098389,83.942917 853.404114,73.299370 827.899536,67.710930 
	C796.898621,60.918175 766.410217,62.421013 736.461426,73.292488 
	C723.641663,77.946091 710.718933,82.239899 697.141724,84.320358 
	C683.930115,86.344795 671.658386,83.654533 659.957031,77.700325 
	C646.585083,70.895996 634.130554,62.533115 621.521912,54.468609 
	C600.720642,41.164040 578.446045,38.916080 554.875549,44.466564 
	C532.707153,49.686878 510.969299,56.654793 488.468048,60.538166 
	C469.107056,63.879570 449.727142,67.030502 430.143127,68.738945 
	C400.706238,71.306908 372.906555,65.478050 346.381500,52.650879 
	C334.549866,46.929253 322.328583,42.135895 309.484344,39.020424 
	C293.981293,35.260048 278.734589,37.470757 263.465698,40.431992 
	C245.471298,43.921814 227.451920,47.672321 208.986130,44.853844 
	C195.831970,42.846092 182.738159,40.424381 169.647537,38.023258 
	C148.162766,34.082462 127.158195,37.062607 106.404037,42.537407 
	C72.129028,51.578903 37.242546,56.263111 1.450803,57.989639 
	C1.000000,40.007500 1.052441,22.014668 0.938307,4.022890 
	C0.922812,1.580296 1.413566,0.493394 3.978488,0.981688 
	C4.621570,1.104114 5.307779,1.000000 5.974168,1.000000 
	C302.683838,1.000000 599.393494,1.013994 896.103088,0.868341 
	C900.605408,0.866131 901.120605,2.134763 901.096191,6.099579 
	C900.917786,35.086380 901.000000,64.074783 901.000000,93.531342 
z"/>
<path fill="#00B0EE" opacity="1.000000" stroke="none" 
	d="
M1.000000,508.468658 
	C21.845112,516.756287 42.535736,525.909302 64.412086,531.949097 
	C99.701851,541.692261 134.467422,540.465027 168.830368,527.539673 
	C178.620331,523.857178 188.618271,520.762024 198.914948,518.573792 
	C215.903732,514.963379 231.656433,517.826599 246.463654,526.538574 
	C254.207138,531.094482 262.246307,535.309692 269.396118,540.684265 
	C296.953461,561.399170 326.916626,564.811768 359.255005,554.732666 
	C389.355652,545.351013 420.261780,539.615906 451.465424,535.443298 
	C479.592407,531.682129 507.629059,530.580750 534.783508,540.933411 
	C547.978943,545.964233 560.915283,551.676880 573.952576,557.119995 
	C593.451477,565.260986 613.526489,567.401184 634.071289,562.221191 
	C663.606934,554.774231 693.041260,555.251465 722.543091,562.254578 
	C745.746460,567.762573 768.784363,566.242981 791.756592,560.533081 
	C815.979858,554.512146 840.255554,548.672424 865.236877,546.645874 
	C876.851929,545.703674 888.477417,544.891724 900.549072,544.010376 
	C901.000000,561.992493 900.947571,579.985352 901.061707,597.977173 
	C901.077271,600.419800 900.586304,601.506653 898.021484,601.018372 
	C897.378418,600.895935 896.692200,601.000000 896.025818,601.000000 
	C599.316101,601.000000 302.606354,600.985962 5.896684,601.131714 
	C1.393698,601.133911 0.879539,599.864380 0.903920,595.900146 
	C1.082196,566.913452 1.000000,537.925110 1.000000,508.468658 
z"/>
</svg>