<svg id="visual" viewBox="0 0 900 600" width="900" height="600" xmlns="http://www.w3.org/2000/svg" xmlns:xlink="http://www.w3.org/1999/xlink" version="1.1"><rect x="0" y="0" width="900" height="600" fill="#081319"></rect><path d="M0 507L12.5 512.3C25 517.7 50 528.3 75 533.7C100 539 125 539 150 532.2C175 525.3 200 511.7 225 517.3C250 523 275 548 300 556.2C325 564.3 350 555.7 375 549C400 542.3 425 537.7 450 534.5C475 531.3 500 529.7 525 537C550 544.3 575 560.7 600 563.5C625 566.3 650 555.7 675 555.2C700 554.7 725 564.3 750 564.8C775 565.3 800 556.7 825 551.5C850 546.3 875 544.7 887.5 543.8L900 543L900 601L887.5 601C875 601 850 601 825 601C800 601 775 601 750 601C725 601 700 601 675 601C650 601 625 601 600 601C575 601 550 601 525 601C500 601 475 601 450 601C425 601 400 601 375 601C350 601 325 601 300 601C275 601 250 601 225 601C200 601 175 601 150 601C125 601 100 601 75 601C50 601 25 601 12.5 601L0 601Z" fill="#00B0EF" stroke-linecap="round" stroke-linejoin="miter"></path></svg>